<svg xmlns="http://www.w3.org/2000/svg" preserveAspectRatio="none" viewBox="0 0 1440 560"><g clip-path="url(&quot;#a&quot;)" fill="none"><path fill="url(#b)" d="M0 0h1440v560H0z"/><circle r="93.335" cx="-91.1" cy="33.6" stroke="#9ca336" stroke-opacity=".25" stroke-width="2"/><circle r="93.335" cx="413.22" cy="319.69" stroke="#9ca336" stroke-opacity=".25" stroke-width="2"/><circle r="93.335" cx="797.77" cy="794.82" stroke="#9ca336" stroke-opacity=".25" stroke-width="2"/><circle r="47.165" cx="548.84" cy="4.52" stroke="#9ca336" stroke-opacity=".25" stroke-width="2"/><circle r="136.815" cx="604.67" cy="95.86" stroke="#9ca336" stroke-opacity=".25" stroke-width="2"/><circle r="130.57" cx="1279.04" cy="54.4" stroke="#9ca336" stroke-opacity=".25" stroke-width="2"/><circle r="110.035" cx="1257.79" cy="142.47" stroke="#9ca336" stroke-opacity=".25" stroke-width="2"/><circle r="57.635" cx="94.99" cy="298.1" stroke="#9ca336" stroke-opacity=".25" stroke-width="2"/><circle r="70.915" cx="1065.69" cy="419.75" stroke="#9ca336" stroke-opacity=".25" stroke-width="2"/><circle r="54.895" cx="529.53" cy="270.85" stroke="#9ca336" stroke-opacity=".25" stroke-width="2"/><circle r="90.545" cx="505.21" cy="415.92" stroke="#9ca336" stroke-opacity=".25" stroke-width="2"/><circle r="141.935" cx="862.03" cy="75.13" stroke="#9ca336" stroke-opacity=".25" stroke-width="2"/><circle r="142.875" cx="481.31" cy="298.59" stroke="#9ca336" stroke-opacity=".25" stroke-width="2"/><circle r="141.64" cx="1374.28" cy="96.52" stroke="#9ca336" stroke-opacity=".25" stroke-width="2"/><circle r="108.69" cx="1361.22" cy="52.62" stroke="#9ca336" stroke-opacity=".25" stroke-width="2"/><circle r="50.15" cx="1035.37" cy="559.64" stroke="#9ca336" stroke-opacity=".25" stroke-width="2"/><circle r="147.53" cx="710.79" cy="452.13" stroke="#9ca336" stroke-opacity=".25" stroke-width="2"/><circle r="152.38" cx="957.27" cy="298.96" stroke="#9ca336" stroke-opacity=".25" stroke-width="2"/><circle r="66.38" cx="1069.19" cy="365.16" stroke="#9ca336" stroke-opacity=".25" stroke-width="2"/><circle r="181.14" cx="940.81" cy="364.04" stroke="#9ca336" stroke-opacity=".25" stroke-width="2"/><circle r="75.565" cx="394.81" cy="200.53" stroke="#9ca336" stroke-opacity=".25" stroke-width="2"/><circle r="119.87" cx="1217.95" cy="197.09" stroke="#9ca336" stroke-opacity=".25" stroke-width="2"/><circle r="153.69" cx="212.7" cy="416.67" stroke="#9ca336" stroke-opacity=".25" stroke-width="2"/><circle r="161.23" cx="700.12" cy="90.95" stroke="#9ca336" stroke-opacity=".25" stroke-width="2"/><circle r="99.04" cx="389.53" cy="72.29" stroke="#9ca336" stroke-opacity=".25" stroke-width="2"/><circle r="80" cx="1432.36" cy="217.47" stroke="#9ca336" stroke-opacity=".25" stroke-width="2"/><circle r="76.32" cx="545.04" cy="515.88" stroke="#9ca336" stroke-opacity=".25" stroke-width="2"/><circle r="107.445" cx="884.3" cy="179.14" stroke="#9ca336" stroke-opacity=".25" stroke-width="2"/><circle r="154.1" cx="899.43" cy="131.59" stroke="#9ca336" stroke-opacity=".25" stroke-width="2"/><circle r="49.465" cx="654.68" cy="55.4" stroke="#9ca336" stroke-opacity=".25" stroke-width="2"/><circle r="113.055" cx="1359.35" cy="489.26" stroke="#9ca336" stroke-opacity=".25" stroke-width="2"/><circle r="63.915" cx="334.81" cy="117.17" stroke="#9ca336" stroke-opacity=".25" stroke-width="2"/><circle r="155.695" cx="829.95" cy="349.64" stroke="#9ca336" stroke-opacity=".25" stroke-width="2"/><circle r="149.185" cx="1157.68" cy="484.53" stroke="#9ca336" stroke-opacity=".25" stroke-width="2"/><circle r="113.73" cx="97.7" cy="12.78" stroke="#9ca336" stroke-opacity=".25" stroke-width="2"/><circle r="136.845" cx="681.69" cy="263.03" stroke="#9ca336" stroke-opacity=".25" stroke-width="2"/><circle r="57.25" cx="11.21" cy="280.2" stroke="#9ca336" stroke-opacity=".25" stroke-width="2"/><circle r="109.27" cx="513.42" cy="544.9" stroke="#9ca336" stroke-opacity=".25" stroke-width="2"/><circle r="112.68" cx="399.53" cy="103.67" stroke="#9ca336" stroke-opacity=".25" stroke-width="2"/><circle r="88.47" cx="1200.19" cy="301.05" stroke="#9ca336" stroke-opacity=".25" stroke-width="2"/><circle r="133.01" cx="1106.61" cy="75.43" stroke="#9ca336" stroke-opacity=".25" stroke-width="2"/><circle r="99.62" cx="798.19" cy="195.03" stroke="#9ca336" stroke-opacity=".25" stroke-width="2"/><circle r="46.76" cx="762.65" cy="289.11" stroke="#9ca336" stroke-opacity=".25" stroke-width="2"/><circle r="59.105" cx="927.55" cy="105.41" stroke="#9ca336" stroke-opacity=".25" stroke-width="2"/><circle r="49.445" cx="628.21" cy="485.98" stroke="#9ca336" stroke-opacity=".25" stroke-width="2"/><circle r="155.43" cx="1333.58" cy="348.4" stroke="#9ca336" stroke-opacity=".25" stroke-width="2"/><circle r="90.78" cx="166.66" cy="478" stroke="#9ca336" stroke-opacity=".25" stroke-width="2"/><circle r="171.17" cx="496.55" cy="503.98" stroke="#9ca336" stroke-opacity=".25" stroke-width="2"/><circle r="132.975" cx="844.19" cy="277.24" stroke="#9ca336" stroke-opacity=".25" stroke-width="2"/><circle r="121.325" cx="173.59" cy="466.64" stroke="#9ca336" stroke-opacity=".25" stroke-width="2"/><circle r="69.36" cx="1160.65" cy="509.92" stroke="#9ca336" stroke-opacity=".25" stroke-width="2"/><circle r="170.28" cx="1071.95" cy="331.3" stroke="#9ca336" stroke-opacity=".25" stroke-width="2"/><circle r="61.055" cx="986.67" cy="330.8" stroke="#9ca336" stroke-opacity=".25" stroke-width="2"/><circle r="178.36" cx="911.94" cy="282.71" stroke="#9ca336" stroke-opacity=".25" stroke-width="2"/><circle r="110.885" cx="1194.61" cy="58.18" stroke="#9ca336" stroke-opacity=".25" stroke-width="2"/><circle r="100.605" cx="685.71" cy="143.89" stroke="#9ca336" stroke-opacity=".25" stroke-width="2"/><circle r="122.35" cx="506.45" cy="521.13" stroke="#9ca336" stroke-opacity=".25" stroke-width="2"/><circle r="170.595" cx="18.77" cy="7.19" stroke="#9ca336" stroke-opacity=".25" stroke-width="2"/><circle r="73.225" cx="611.87" cy="485.42" stroke="#9ca336" stroke-opacity=".25" stroke-width="2"/><circle r="73.385" cx="344.77" cy="222.9" stroke="#9ca336" stroke-opacity=".25" stroke-width="2"/><circle r="154.85" cx="204.29" cy="461.4" stroke="#9ca336" stroke-opacity=".25" stroke-width="2"/><circle r="143.47" cx="1208.61" cy="476.94" stroke="#9ca336" stroke-opacity=".25" stroke-width="2"/><circle r="115.98" cx="1121.37" cy="333.94" stroke="#9ca336" stroke-opacity=".25" stroke-width="2"/><circle r="133.32" cx="434.36" cy="250.45" stroke="#9ca336" stroke-opacity=".25" stroke-width="2"/><circle r="53.755" cx="1193.36" cy="98.42" stroke="#9ca336" stroke-opacity=".25" stroke-width="2"/><circle r="143.9" cx="114.36" cy="552.02" stroke="#9ca336" stroke-opacity=".25" stroke-width="2"/><circle r="88.17" cx="1205.54" cy="148.48" stroke="#9ca336" stroke-opacity=".25" stroke-width="2"/><circle r="153.53" cx="1010.72" cy="496.21" stroke="#9ca336" stroke-opacity=".25" stroke-width="2"/><circle r="103.965" cx="1402.26" cy="529.3" stroke="#9ca336" stroke-opacity=".25" stroke-width="2"/><circle r="135.01" cx="1117.24" cy="218.2" stroke="#9ca336" stroke-opacity=".25" stroke-width="2"/><circle r="144.415" cx="153.44" cy="44.76" stroke="#9ca336" stroke-opacity=".25" stroke-width="2"/><circle r="134.2" cx="334.22" cy="353.51" stroke="#9ca336" stroke-opacity=".25" stroke-width="2"/><circle r="153.72" cx="313.92" cy="100.69" stroke="#9ca336" stroke-opacity=".25" stroke-width="2"/><circle r="127.59" cx="1322.85" cy="131.3" stroke="#9ca336" stroke-opacity=".25" stroke-width="2"/><circle r="128.96" cx="516.39" cy="178.17" stroke="#9ca336" stroke-opacity=".25" stroke-width="2"/><circle r="124.765" cx="1117.92" cy="399.07" stroke="#9ca336" stroke-opacity=".25" stroke-width="2"/><circle r="65.11" cx="753.43" cy="160.8" stroke="#9ca336" stroke-opacity=".25" stroke-width="2"/><circle r="130" cx="464.4" cy="107.32" stroke="#9ca336" stroke-opacity=".25" stroke-width="2"/><circle r="107.3" cx="397.67" cy="126.29" stroke="#9ca336" stroke-opacity=".25" stroke-width="2"/><circle r="50.61" cx="999.06" cy="323.01" stroke="#9ca336" stroke-opacity=".25" stroke-width="2"/><circle r="166.595" cx="1099.96" cy="317.08" stroke="#9ca336" stroke-opacity=".25" stroke-width="2"/><circle r="155.745" cx="1433.64" cy="224.87" stroke="#9ca336" stroke-opacity=".25" stroke-width="2"/><circle r="142.555" cx="670.78" cy="317.93" stroke="#9ca336" stroke-opacity=".25" stroke-width="2"/><circle r="120.92" cx="979.32" cy="539.1" stroke="#9ca336" stroke-opacity=".25" stroke-width="2"/><circle r="49.53" cx="353.18" cy="519.79" stroke="#9ca336" stroke-opacity=".25" stroke-width="2"/><circle r="81.86" cx="1004.56" cy="323.37" stroke="#9ca336" stroke-opacity=".25" stroke-width="2"/><circle r="108.905" cx="1047.31" cy="319.77" stroke="#9ca336" stroke-opacity=".25" stroke-width="2"/><circle r="138.155" cx="441.74" cy="262.04" stroke="#9ca336" stroke-opacity=".25" stroke-width="2"/><circle r="135.87" cx="1331.72" cy="87.85" stroke="#9ca336" stroke-opacity=".25" stroke-width="2"/><circle r="91.44" cx="262.5" cy="544.83" stroke="#9ca336" stroke-opacity=".25" stroke-width="2"/><circle r="97.76" cx="783.56" cy="118.56" stroke="#9ca336" stroke-opacity=".25" stroke-width="2"/><circle r="53.59" cx="647.7" cy="487.52" stroke="#9ca336" stroke-opacity=".25" stroke-width="2"/><circle r="129.385" cx="1182.44" cy="65.32" stroke="#9ca336" stroke-opacity=".25" stroke-width="2"/><circle r="153.085" cx="538.88" cy="448.29" stroke="#9ca336" stroke-opacity=".25" stroke-width="2"/><circle r="139.72" cx="1312.95" cy="6.61" stroke="#9ca336" stroke-opacity=".25" stroke-width="2"/><circle r="173.565" cx="1406.53" cy="234.6" stroke="#9ca336" stroke-opacity=".25" stroke-width="2"/><circle r="129.975" cx="109.83" cy="346.86" stroke="#9ca336" stroke-opacity=".25" stroke-width="2"/><circle r="48.28" cx="941.99" cy="497.6" stroke="#9ca336" stroke-opacity=".25" stroke-width="2"/><circle r="120.155" cx="1192.69" cy="160.67" stroke="#9ca336" stroke-opacity=".25" stroke-width="2"/><circle r="143.19" cx="325.76" cy="288.86" stroke="#9ca336" stroke-opacity=".25" stroke-width="2"/><circle r="82.16" cx="89.68" cy="280.7" stroke="#9ca336" stroke-opacity=".25" stroke-width="2"/><circle r="57.705" cx="160.51" cy="41.22" stroke="#9ca336" stroke-opacity=".25" stroke-width="2"/><circle r="151.46" cx="1296.79" cy="76.29" stroke="#9ca336" stroke-opacity=".25" stroke-width="2"/><circle r="60.725" cx="1172.95" cy="512.58" stroke="#9ca336" stroke-opacity=".25" stroke-width="2"/><circle r="74.265" cx="747.61" cy="343.07" stroke="#9ca336" stroke-opacity=".25" stroke-width="2"/><circle r="165.03" cx="83.13" cy="439.4" stroke="#9ca336" stroke-opacity=".25" stroke-width="2"/><circle r="86.55" cx="1054.76" cy="302" stroke="#9ca336" stroke-opacity=".25" stroke-width="2"/><circle r="184.47" cx="662.22" cy=".28" stroke="#9ca336" stroke-opacity=".25" stroke-width="2"/><circle r="136.35" cx="1421.64" cy="191.31" stroke="#9ca336" stroke-opacity=".25" stroke-width="2"/><circle r="110.41" cx="67.94" cy="304.79" stroke="#9ca336" stroke-opacity=".25" stroke-width="2"/></g><defs><linearGradient x1="15.28%" y1="-39.29%" x2="84.72%" y2="139.29%" gradientUnits="userSpaceOnUse" id="b"><stop stop-color="#0e2a47" offset="0"/><stop stop-color="rgba(158, 0, 156, 1)" offset="1"/></linearGradient><clipPath id="a"><path d="M0 0h1440v560H0z"/></clipPath></defs></svg>